<svg width="32" height="33" viewBox="0 0 32 33" fill="none" xmlns="http://www.w3.org/2000/svg">
<g clip-path="url(#clip0_2_36)">
<path d="M12 25.8333C5.33329 27.8333 5.33329 22.5 2.66663 21.8333M21.3333 29.8333V24.6733C21.3833 24.0375 21.2974 23.3984 21.0813 22.7984C20.8652 22.1984 20.5239 21.6512 20.08 21.1933C24.2666 20.7267 28.6666 19.14 28.6666 11.86C28.6663 9.99843 27.9502 8.20826 26.6666 6.86C27.2744 5.23134 27.2315 3.43113 26.5466 1.83333C26.5466 1.83333 24.9733 1.36666 21.3333 3.80666C18.2773 2.97843 15.0559 2.97843 12 3.80666C8.35996 1.36666 6.78663 1.83333 6.78663 1.83333C6.10179 3.43113 6.05882 5.23134 6.66663 6.86C5.37346 8.21826 4.65666 10.0246 4.66663 11.9C4.66663 19.1267 9.06663 20.7133 13.2533 21.2333C12.8146 21.6866 12.4763 22.2272 12.2604 22.8199C12.0444 23.4126 11.9557 24.0441 12 24.6733V29.8333" stroke="#1E1E1E" stroke-width="3" stroke-linecap="round" stroke-linejoin="round"/>
</g>
<defs>
<clipPath id="clip0_2_36">
<rect width="32" height="32" fill="white" transform="translate(0 0.5)"/>
</clipPath>
</defs>
</svg>
