<svg width="32" height="33" viewBox="0 0 32 33" fill="none" xmlns="http://www.w3.org/2000/svg">
<path d="M21.3333 11.1667C23.455 11.1667 25.4899 12.0095 26.9901 13.5098C28.4904 15.0101 29.3333 17.0449 29.3333 19.1667V28.5H24V19.1667C24 18.4594 23.719 17.7811 23.2189 17.281C22.7188 16.7809 22.0405 16.5 21.3333 16.5C20.626 16.5 19.9478 16.7809 19.4477 17.281C18.9476 17.7811 18.6666 18.4594 18.6666 19.1667V28.5H13.3333V19.1667C13.3333 17.0449 14.1761 15.0101 15.6764 13.5098C17.1767 12.0095 19.2116 11.1667 21.3333 11.1667Z" stroke="#1E1E1E" stroke-width="3" stroke-linecap="round" stroke-linejoin="round"/>
<path d="M7.99996 12.5H2.66663V28.5H7.99996V12.5Z" stroke="#1E1E1E" stroke-width="3" stroke-linecap="round" stroke-linejoin="round"/>
<path d="M5.33329 8.5C6.80605 8.5 7.99996 7.30609 7.99996 5.83333C7.99996 4.36057 6.80605 3.16666 5.33329 3.16666C3.86053 3.16666 2.66663 4.36057 2.66663 5.83333C2.66663 7.30609 3.86053 8.5 5.33329 8.5Z" stroke="#1E1E1E" stroke-width="3" stroke-linecap="round" stroke-linejoin="round"/>
</svg>
